# xmcd CD database file
#
# Track frame offsets:
#	150
#	32706
#	53641
#	73295
#	94064
#	110695
#	142584
#	164765
#	179506
#	204965
#
# Disc length: 3004 seconds
#
# Revision: 0
# Processed by: cddbd v1.5.2PL0 Copyright (c) Steve Scherf et al.
# Submitted via: CDex 1.70beta2
#
DISCID=8c0bba0a
DTITLE=Kenny Drew Trio - Misty
DYEAR=1900
DGENRE=Jazz
TTITLE0=Stella By Starlight
TTITLE1=Misty
TTITLE2=Autumn In Rome
TTITLE3=But Not For Me
TTITLE4=As Time Goes By
TTITLE5=Last Tango In Paris
TTITLE6=Sunset
TTITLE7=Blues In Green
TTITLE8=The Way We Were
TTITLE9=I'm Old Fashioned
EXTD=
EXTT0=
EXTT1=
EXTT2=
EXTT3=
EXTT4=
EXTT5=
EXTT6=
EXTT7=
EXTT8=
EXTT9=
PLAYORDER=
